<?xml version="1.0" encoding="UTF-8" standalone="no"?>
<!DOCTYPE svg PUBLIC "-//W3C//DTD SVG 1.1//EN"
 "http://www.w3.org/Graphics/SVG/1.1/DTD/svg11.dtd">
<!-- Generated by graphviz version 2.40.1 (20161225.0304)
 -->
<!-- Title: G Pages: 1 -->
<svg width="324pt" height="368pt"
 viewBox="0.00 0.00 324.00 368.00" xmlns="http://www.w3.org/2000/svg" xmlns:xlink="http://www.w3.org/1999/xlink">
<g id="graph0" class="graph" transform="scale(1 1) rotate(0) translate(4 364)">
<title>G</title>
<polygon fill="#ffffff" stroke="transparent" points="-4,4 -4,-364 320.005,-364 320.005,4 -4,4"/>
<!-- A0 -->
<g id="node1" class="node">
<title>A0</title>
<polygon fill="none" stroke="#000000" points="82.005,-202 82.005,-234 316.005,-234 316.005,-202 82.005,-202"/>
<text text-anchor="start" x="181.4985" y="-215" font-family="Helvetica,sans-Serif" font-size="10.00" fill="#000000">Adapter</text>
<polygon fill="none" stroke="#000000" points="82.005,-170 82.005,-202 316.005,-202 316.005,-170 82.005,-170"/>
<text text-anchor="start" x="155.929" y="-183" font-family="Helvetica,sans-Serif" font-size="10.00" fill="#000000">&#45;*adptee_: Adaptee</text>
<polygon fill="none" stroke="#000000" points="82.005,-126 82.005,-170 316.005,-170 316.005,-126 82.005,-126"/>
<text text-anchor="start" x="91.5975" y="-151" font-family="Helvetica,sans-Serif" font-size="10.00" fill="#000000"> +Adapter(*adptee:Adaptee): adaotee_(adaptee)</text>
<text text-anchor="start" x="115.5165" y="-139" font-family="Helvetica,sans-Serif" font-size="10.00" fill="#000000"> +Request(): const override std::string</text>
</g>
<!-- A2 -->
<g id="node3" class="node">
<title>A2</title>
<polygon fill="none" stroke="#000000" points="89.005,-44 89.005,-76 309.005,-76 309.005,-44 89.005,-44"/>
<text text-anchor="start" x="180.3835" y="-57" font-family="Helvetica,sans-Serif" font-size="10.00" fill="#000000">Adaptee</text>
<polygon fill="none" stroke="#000000" points="89.005,0 89.005,-44 309.005,-44 309.005,0 89.005,0"/>
<text text-anchor="start" x="174.135" y="-25" font-family="Helvetica,sans-Serif" font-size="10.00" fill="#000000">+Adaptee()</text>
<text text-anchor="start" x="98.839" y="-13" font-family="Helvetica,sans-Serif" font-size="10.00" fill="#000000">+SpecificRequest(): const std::string Adaptee</text>
</g>
<!-- A0&#45;&gt;A2 -->
<g id="edge2" class="edge">
<title>A0&#45;&gt;A2</title>
<path fill="none" stroke="#000000" stroke-dasharray="5,2" d="M199.005,-125.9108C199.005,-112.9296 199.005,-99.1476 199.005,-86.4413"/>
<polygon fill="#000000" stroke="#000000" points="199.005,-76.0621 203.5051,-86.0621 199.005,-81.0621 199.0051,-86.0621 199.0051,-86.0621 199.0051,-86.0621 199.005,-81.0621 194.5051,-86.0622 199.005,-76.0621 199.005,-76.0621"/>
<text text-anchor="middle" x="190.5526" y="-104.7847" font-family="Helvetica,sans-Serif" font-size="10.00" fill="#000000">uses </text>
</g>
<!-- A1 -->
<g id="node2" class="node">
<title>A1</title>
<polygon fill="none" stroke="#000000" points="96.005,-328 96.005,-360 302.005,-360 302.005,-328 96.005,-328"/>
<text text-anchor="start" x="172.88" y="-341" font-family="Helvetica,sans-Serif" font-size="10.00" fill="#000000">&lt;&lt;Target&gt;&gt;</text>
<polygon fill="none" stroke="#000000" points="96.005,-284 96.005,-328 302.005,-328 302.005,-284 96.005,-284"/>
<text text-anchor="start" x="178.3095" y="-309" font-family="Helvetica,sans-Serif" font-size="10.00" fill="#000000">+Target()</text>
<text text-anchor="start" x="105.794" y="-297" font-family="Helvetica,sans-Serif" font-size="10.00" fill="#000000">+Request(): const virtual std::string Target</text>
</g>
<!-- A1&#45;&gt;A0 -->
<g id="edge1" class="edge">
<title>A1&#45;&gt;A0</title>
<path fill="none" stroke="#000000" stroke-dasharray="5,2" d="M199.005,-273.5843C199.005,-260.8988 199.005,-247.1396 199.005,-234.1747"/>
<polygon fill="none" stroke="#000000" points="195.5051,-273.9466 199.005,-283.9466 202.5051,-273.9466 195.5051,-273.9466"/>
<text text-anchor="middle" x="207.4574" y="-249.3009" font-family="Helvetica,sans-Serif" font-size="10.00" fill="#000000"> implements</text>
</g>
<!-- A3 -->
<g id="node4" class="node">
<title>A3</title>
<polygon fill="none" stroke="#000000" points="72.015,-340 -.005,-340 -.005,-304 78.015,-304 78.015,-334 72.015,-340"/>
<polyline fill="none" stroke="#000000" points="72.015,-340 72.015,-334 "/>
<polyline fill="none" stroke="#000000" points="78.015,-334 72.015,-334 "/>
<text text-anchor="middle" x="39.005" y="-319" font-family="Helvetica,sans-Serif" font-size="10.00" fill="#000000">client Code</text>
</g>
<!-- A3&#45;&gt;A1 -->
<g id="edge3" class="edge">
<title>A3&#45;&gt;A1</title>
<path fill="none" stroke="#000000" stroke-dasharray="5,2" d="M78.0675,-322C83.8939,-322 89.7203,-322 95.5467,-322"/>
</g>
</g>
</svg>
